# xmcd
#
# Track frame offsets:
#	150
#	28400
#	41944
#	84379
#	106400
#
# Disc length: 2122 seconds
#
# Revision: 1
# Processed by: cddbd v1.5.2PL0 Copyright (c) Steve Scherf et al.
# Submitted via: audiograbber 1.83.01
#
DISCID=3e084805
DTITLE=Grateful Dead - 73-11-30A Boston Music Hall, Boston MA
DYEAR=1900
DGENRE=
TTITLE0=Bertha
TTITLE1=Promised Land
TTITLE2=Row Jimmy
TTITLE3=Jack Straw
TTITLE4=Here Comes Sunshine
EXTD=
EXTT0=
EXTT1=
EXTT2=
EXTT3=
EXTT4=
PLAYORDER=
